%TF.GenerationSoftware,KiCad,Pcbnew,7.0.1-0*%
%TF.CreationDate,2023-08-15T02:12:02+05:30*%
%TF.ProjectId,retry1,72657472-7931-42e6-9b69-6361645f7063,rev?*%
%TF.SameCoordinates,Original*%
%TF.FileFunction,Copper,L4,Bot*%
%TF.FilePolarity,Positive*%
%FSLAX46Y46*%
G04 Gerber Fmt 4.6, Leading zero omitted, Abs format (unit mm)*
G04 Created by KiCad (PCBNEW 7.0.1-0) date 2023-08-15 02:12:02*
%MOMM*%
%LPD*%
G01*
G04 APERTURE LIST*
G04 Aperture macros list*
%AMRoundRect*
0 Rectangle with rounded corners*
0 $1 Rounding radius*
0 $2 $3 $4 $5 $6 $7 $8 $9 X,Y pos of 4 corners*
0 Add a 4 corners polygon primitive as box body*
4,1,4,$2,$3,$4,$5,$6,$7,$8,$9,$2,$3,0*
0 Add four circle primitives for the rounded corners*
1,1,$1+$1,$2,$3*
1,1,$1+$1,$4,$5*
1,1,$1+$1,$6,$7*
1,1,$1+$1,$8,$9*
0 Add four rect primitives between the rounded corners*
20,1,$1+$1,$2,$3,$4,$5,0*
20,1,$1+$1,$4,$5,$6,$7,0*
20,1,$1+$1,$6,$7,$8,$9,0*
20,1,$1+$1,$8,$9,$2,$3,0*%
G04 Aperture macros list end*
%TA.AperFunction,ComponentPad*%
%ADD10C,0.450000*%
%TD*%
%TA.AperFunction,ComponentPad*%
%ADD11RoundRect,0.250000X0.350000X0.625000X-0.350000X0.625000X-0.350000X-0.625000X0.350000X-0.625000X0*%
%TD*%
%TA.AperFunction,ComponentPad*%
%ADD12O,1.200000X1.750000*%
%TD*%
%TA.AperFunction,ComponentPad*%
%ADD13C,0.800000*%
%TD*%
%TA.AperFunction,ComponentPad*%
%ADD14C,6.400000*%
%TD*%
%TA.AperFunction,ComponentPad*%
%ADD15RoundRect,0.250000X-0.350000X-0.625000X0.350000X-0.625000X0.350000X0.625000X-0.350000X0.625000X0*%
%TD*%
%TA.AperFunction,SMDPad,CuDef*%
%ADD16RoundRect,0.155000X-0.212500X-0.155000X0.212500X-0.155000X0.212500X0.155000X-0.212500X0.155000X0*%
%TD*%
%TA.AperFunction,SMDPad,CuDef*%
%ADD17R,1.200000X0.900000*%
%TD*%
%TA.AperFunction,SMDPad,CuDef*%
%ADD18R,2.400000X1.500000*%
%TD*%
%TA.AperFunction,ViaPad*%
%ADD19C,0.700000*%
%TD*%
%TA.AperFunction,ViaPad*%
%ADD20C,0.500000*%
%TD*%
%TA.AperFunction,Conductor*%
%ADD21C,0.250000*%
%TD*%
%TA.AperFunction,Conductor*%
%ADD22C,0.200000*%
%TD*%
%TA.AperFunction,Conductor*%
%ADD23C,0.500000*%
%TD*%
%TA.AperFunction,Conductor*%
%ADD24C,0.300000*%
%TD*%
%TA.AperFunction,Conductor*%
%ADD25C,0.600000*%
%TD*%
%TA.AperFunction,Conductor*%
%ADD26C,0.400000*%
%TD*%
G04 APERTURE END LIST*
D10*
%TO.P,U7,V49_1,EP*%
%TO.N,GND*%
X128514000Y-113792000D03*
%TO.P,U7,V49_2,EP*%
X127254000Y-113792000D03*
%TO.P,U7,V49_3,EP*%
X127254000Y-112532000D03*
%TO.P,U7,V49_4,EP*%
X128514000Y-112532000D03*
%TO.P,U7,V49_5,EP*%
X129774000Y-112532000D03*
%TO.P,U7,V49_6,EP*%
X127254000Y-115052000D03*
%TO.P,U7,V49_7,EP*%
X128514000Y-115052000D03*
%TO.P,U7,V49_8,EP*%
X129774000Y-115052000D03*
%TO.P,U7,V49_9,EP*%
X129774000Y-113792000D03*
%TO.P,U7,V49_10,EP*%
X126189000Y-113792000D03*
%TO.P,U7,V49_11,EP*%
X126189000Y-112532000D03*
%TO.P,U7,V49_12,EP*%
X130839000Y-112532000D03*
%TO.P,U7,V49_13,EP*%
X130839000Y-113792000D03*
%TO.P,U7,V49_14,EP*%
X130839000Y-115052000D03*
%TO.P,U7,V49_15,EP*%
X127254000Y-111467000D03*
%TO.P,U7,V49_16,EP*%
X128514000Y-111467000D03*
%TO.P,U7,V49_17,EP*%
X129774000Y-111467000D03*
%TO.P,U7,V49_18,EP*%
X127254000Y-116117000D03*
%TO.P,U7,V49_19,EP*%
X128514000Y-116117000D03*
%TO.P,U7,V49_20,EP*%
X129774000Y-116117000D03*
%TO.P,U7,V49_21,EP*%
X126189000Y-115052000D03*
%TD*%
D11*
%TO.P,Hall,1,Pin_1*%
%TO.N,+3.3V*%
X135197600Y-94970600D03*
D12*
%TO.P,Hall,2,Pin_2*%
%TO.N,/Hall1*%
X133197600Y-94970600D03*
%TO.P,Hall,3,Pin_3*%
%TO.N,/Hall2*%
X131197600Y-94970600D03*
%TO.P,Hall,4,Pin_4*%
%TO.N,/Hall3*%
X129197600Y-94970600D03*
%TO.P,Hall,5,Pin_5*%
%TO.N,GND*%
X127197600Y-94970600D03*
%TD*%
D11*
%TO.P,JTAG,1,Pin_1*%
%TO.N,+3.3V*%
X106914366Y-94992367D03*
D12*
%TO.P,JTAG,2,Pin_2*%
%TO.N,/SWDIO{slash}TMS*%
X104914366Y-94992367D03*
%TO.P,JTAG,3,Pin_3*%
%TO.N,/SWCLK{slash}TCK*%
X102914366Y-94992367D03*
%TO.P,JTAG,4,Pin_4*%
%TO.N,/TDI*%
X100914366Y-94992367D03*
%TO.P,JTAG,5,Pin_5*%
%TO.N,/TDO*%
X98914366Y-94992367D03*
%TO.P,JTAG,6,Pin_6*%
%TO.N,/TRST*%
X96914366Y-94992367D03*
%TO.P,JTAG,7,Pin_7*%
%TO.N,GND*%
X94914366Y-94992367D03*
%TD*%
D13*
%TO.P,A,1,1*%
%TO.N,/SHA*%
X151295400Y-127863600D03*
X151998344Y-126166544D03*
X151998344Y-129560656D03*
X153695400Y-125463600D03*
D14*
X153695400Y-127863600D03*
D13*
X153695400Y-130263600D03*
X155392456Y-126166544D03*
X155392456Y-129560656D03*
X156095400Y-127863600D03*
%TD*%
D11*
%TO.P,Comms,1,Pin_1*%
%TO.N,/I2C_SDA*%
X122009442Y-94980552D03*
D12*
%TO.P,Comms,2,Pin_2*%
%TO.N,/I2C_SCL*%
X120009442Y-94980552D03*
%TO.P,Comms,3,Pin_3*%
%TO.N,/UART_TX*%
X118009442Y-94980552D03*
%TO.P,Comms,4,Pin_4*%
%TO.N,/UART_RX*%
X116009442Y-94980552D03*
%TO.P,Comms,5,Pin_5*%
%TO.N,/CAN_L*%
X114009442Y-94980552D03*
%TO.P,Comms,6,Pin_6*%
%TO.N,/CAN_H*%
X112009442Y-94980552D03*
%TD*%
D15*
%TO.P,SWD,1,Pin_1*%
%TO.N,+3.3V*%
X98338000Y-136444000D03*
D12*
%TO.P,SWD,2,Pin_2*%
%TO.N,/SWDIO{slash}TMS*%
X100338000Y-136444000D03*
%TO.P,SWD,3,Pin_3*%
%TO.N,/SWCLK{slash}TCK*%
X102338000Y-136444000D03*
%TO.P,SWD,4,Pin_4*%
%TO.N,/NRST*%
X104338000Y-136444000D03*
%TO.P,SWD,5,Pin_5*%
%TO.N,+5V*%
X106338000Y-136444000D03*
%TO.P,SWD,6,Pin_6*%
%TO.N,GND*%
X108338000Y-136444000D03*
%TD*%
D13*
%TO.P,B,1,1*%
%TO.N,/SHB*%
X151341456Y-115717656D03*
X152044400Y-114020600D03*
X152044400Y-117414712D03*
X153741456Y-113317656D03*
D14*
X153741456Y-115717656D03*
D13*
X153741456Y-118117656D03*
X155438512Y-114020600D03*
X155438512Y-117414712D03*
X156141456Y-115717656D03*
%TD*%
%TO.P,C,1,1*%
%TO.N,/SHC*%
X151295400Y-104063800D03*
X151998344Y-102366744D03*
X151998344Y-105760856D03*
X153695400Y-101663800D03*
D14*
X153695400Y-104063800D03*
D13*
X153695400Y-106463800D03*
X155392456Y-102366744D03*
X155392456Y-105760856D03*
X156095400Y-104063800D03*
%TD*%
D15*
%TO.P,Gpio Access,1,Pin_1*%
%TO.N,+3.3V*%
X126146800Y-136386400D03*
D12*
%TO.P,Gpio Access,2,Pin_2*%
%TO.N,/PC0*%
X128146800Y-136386400D03*
%TO.P,Gpio Access,3,Pin_3*%
%TO.N,/PC1*%
X130146800Y-136386400D03*
%TO.P,Gpio Access,4,Pin_4*%
%TO.N,/PC2*%
X132146800Y-136386400D03*
%TO.P,Gpio Access,5,Pin_5*%
%TO.N,/PC3*%
X134146800Y-136386400D03*
%TO.P,Gpio Access,6,Pin_6*%
%TO.N,/PB6*%
X136146800Y-136386400D03*
%TO.P,Gpio Access,7,Pin_7*%
%TO.N,/PB11*%
X138146800Y-136386400D03*
%TO.P,Gpio Access,8,Pin_8*%
%TO.N,GND*%
X140146800Y-136386400D03*
%TD*%
D16*
%TO.P,C30,1*%
%TO.N,+3.3V*%
X121047700Y-122478800D03*
%TO.P,C30,2*%
%TO.N,GND*%
X122182700Y-122478800D03*
%TD*%
%TO.P,C32,1*%
%TO.N,/SW*%
X119320500Y-113818400D03*
%TO.P,C32,2*%
%TO.N,/CB*%
X120455500Y-113818400D03*
%TD*%
D17*
%TO.P,D4,1,K*%
%TO.N,/SW*%
X124002800Y-115038600D03*
%TO.P,D4,2,A*%
%TO.N,GND*%
X124002800Y-118338600D03*
%TD*%
D18*
%TO.P,L2,1,1*%
%TO.N,+3.3V*%
X119278400Y-120861000D03*
%TO.P,L2,2,2*%
%TO.N,/SW*%
X119278400Y-115361000D03*
%TD*%
D19*
%TO.N,Net-(U3-PC14)*%
X110210600Y-128930000D03*
X112564386Y-121148229D03*
%TO.N,Net-(U3-PC13)*%
X109474000Y-127508000D03*
X111637589Y-120906845D03*
%TO.N,Net-(SW3-B)*%
X129768600Y-109372400D03*
X127431800Y-129209800D03*
%TO.N,GND*%
X78232000Y-125222000D03*
X140784200Y-112086800D03*
X124002800Y-120345200D03*
X76200000Y-121158000D03*
X80770000Y-142250000D03*
X77216000Y-125222000D03*
X77216000Y-127254000D03*
X123113800Y-122478800D03*
X140809600Y-123681200D03*
X141544200Y-110536800D03*
X78232000Y-126238000D03*
X77216000Y-126238000D03*
X111090000Y-117020000D03*
X74168000Y-128270000D03*
X120396000Y-123698000D03*
X78233371Y-119209342D03*
X87934800Y-142392400D03*
X86131400Y-133985000D03*
X140794200Y-109728000D03*
X88500000Y-119640000D03*
X139216200Y-100422600D03*
X85344000Y-136525000D03*
X74168000Y-120142000D03*
X141496200Y-99692600D03*
X78486000Y-92989400D03*
X86131400Y-136525000D03*
X140743400Y-98145600D03*
X139264200Y-112066800D03*
X139216200Y-99672600D03*
X74168000Y-127254000D03*
X85064600Y-99339400D03*
X112471200Y-105714800D03*
X119010000Y-116910000D03*
X139274200Y-122103200D03*
X141496200Y-100442600D03*
X87909400Y-140741400D03*
X141506200Y-101182600D03*
X78232000Y-122174000D03*
X139274200Y-112806800D03*
X77216000Y-124206000D03*
X86250000Y-121230000D03*
X75185371Y-119209342D03*
X139226200Y-101162600D03*
X80770000Y-141000000D03*
X139289600Y-123661200D03*
X75184000Y-122174000D03*
X75184000Y-125222000D03*
X117094000Y-126492000D03*
X74168000Y-121158000D03*
X74168000Y-123190000D03*
X109220000Y-107696000D03*
X76200000Y-128270000D03*
X88510000Y-121230000D03*
X78232000Y-121158000D03*
X76200000Y-126238000D03*
X78232000Y-128270000D03*
X74168000Y-124206000D03*
X77217371Y-119209342D03*
X109474000Y-120142000D03*
X78232000Y-124206000D03*
X75184000Y-124206000D03*
X77216000Y-120142000D03*
X141569600Y-123681200D03*
X140079600Y-125161200D03*
X140054200Y-112816800D03*
X139264200Y-110516800D03*
X130911600Y-121056400D03*
X141569600Y-122881200D03*
X75184000Y-128270000D03*
X140054200Y-122113200D03*
X139264200Y-111316800D03*
X139289600Y-124411200D03*
X141554200Y-109728000D03*
X140069600Y-123671200D03*
X76200000Y-120142000D03*
X97713800Y-106197400D03*
X142189200Y-95377000D03*
X75184000Y-126238000D03*
X140069600Y-124421200D03*
X121158000Y-108712000D03*
X139274200Y-109708000D03*
X141569600Y-124431200D03*
X141579600Y-125171200D03*
X140736200Y-100442600D03*
X78511400Y-94462600D03*
X139996200Y-99682600D03*
X140006200Y-101172600D03*
X85598000Y-111277400D03*
X140784200Y-110536800D03*
X76200000Y-127254000D03*
X140794200Y-122123200D03*
X141544200Y-111336800D03*
X139996200Y-98882600D03*
X74168000Y-126238000D03*
X77216000Y-121158000D03*
X79560000Y-142230000D03*
X74168000Y-125222000D03*
X75184000Y-123190000D03*
X86260000Y-119630000D03*
X84582000Y-133172200D03*
X77216000Y-128270000D03*
X141198600Y-95351600D03*
X75184000Y-121158000D03*
X109982000Y-124206000D03*
X85369400Y-133172200D03*
X78232000Y-120142000D03*
X140044200Y-112076800D03*
X78232000Y-123190000D03*
X139223400Y-98125600D03*
X87420000Y-120430000D03*
X77216000Y-122174000D03*
X117271800Y-118008400D03*
X76200000Y-124206000D03*
X85064600Y-103657400D03*
X80645000Y-103682800D03*
X86131400Y-134823200D03*
X140736200Y-99692600D03*
X139289600Y-122861200D03*
X140809600Y-124431200D03*
X140819600Y-125171200D03*
X76200000Y-123190000D03*
X141554200Y-122123200D03*
X78232000Y-127254000D03*
X141496200Y-98892600D03*
X76200000Y-125222000D03*
X88315800Y-106705400D03*
X74169371Y-119209342D03*
X86131400Y-135661400D03*
X103886000Y-127508000D03*
X85623400Y-112268000D03*
X98196400Y-106680000D03*
X79550000Y-141010000D03*
X141554200Y-112826800D03*
X140044200Y-111326800D03*
X87934800Y-141579600D03*
X140044200Y-110526800D03*
X141503400Y-98145600D03*
X140794200Y-112826800D03*
X140069600Y-122871200D03*
X75184000Y-120142000D03*
X84531200Y-136525000D03*
X87782400Y-106197400D03*
X110490000Y-98552000D03*
X76200000Y-122174000D03*
X77216000Y-123190000D03*
X140746200Y-101182600D03*
X139996200Y-100432600D03*
X140030200Y-95351600D03*
X140809600Y-122881200D03*
X80645000Y-99314000D03*
X138963400Y-95351600D03*
X76201371Y-119209342D03*
X75184000Y-127254000D03*
X140784200Y-111336800D03*
X115316000Y-98552000D03*
X115770000Y-128200000D03*
X86131400Y-133172200D03*
X139216200Y-98872600D03*
X74168000Y-122174000D03*
X139299600Y-125151200D03*
X87884000Y-139928600D03*
X140054200Y-109718000D03*
X140003400Y-98135600D03*
X140736200Y-98892600D03*
X141544200Y-112086800D03*
%TO.N,/Vbus*%
X81026000Y-110744000D03*
X111252000Y-110998000D03*
%TO.N,/UART_TX*%
X117094000Y-104394000D03*
%TO.N,/UART_RX*%
X116332000Y-106172000D03*
%TO.N,/SWDIO{slash}TMS*%
X113538000Y-116332000D03*
%TO.N,/SWCLK{slash}TCK*%
X112776000Y-117631161D03*
%TO.N,/SW*%
X123469400Y-115849400D03*
%TO.N,/SPB*%
X140342900Y-118637600D03*
X133502400Y-116459000D03*
%TO.N,/SPA*%
X132715000Y-121742200D03*
X132740400Y-120192800D03*
D20*
%TO.N,/SOC*%
X121917698Y-114326833D03*
X133390700Y-111633000D03*
%TO.N,/SOB*%
X122589208Y-114589317D03*
X132791200Y-111048800D03*
%TO.N,/SOA*%
X123190000Y-114091500D03*
X132562600Y-109321600D03*
D19*
%TO.N,/SHC*%
X150774400Y-109728000D03*
X137372900Y-112877600D03*
%TO.N,/SHB*%
X148533720Y-115595400D03*
X135720000Y-116080000D03*
D20*
%TO.N,/SHA*%
X130035133Y-118275267D03*
D19*
X142640000Y-128016000D03*
%TO.N,/PB6*%
X110871000Y-115062000D03*
%TO.N,/NRST*%
X114300000Y-114630200D03*
X107844161Y-114050233D03*
X114547603Y-121575493D03*
D20*
%TO.N,/GLA*%
X130810300Y-118602284D03*
D19*
X131089400Y-126923800D03*
%TO.N,/GHC*%
X149326600Y-97434400D03*
X136779000Y-113893600D03*
D20*
%TO.N,/CB*%
X124104400Y-114139098D03*
D19*
%TO.N,/BST*%
X85344000Y-115824000D03*
X82550000Y-121412000D03*
%TO.N,/BOOT0*%
X107844950Y-115351016D03*
X91186000Y-134366000D03*
%TO.N,+BATT*%
X140020000Y-127020000D03*
X139830000Y-115020000D03*
X143680000Y-96890000D03*
X77053573Y-110123537D03*
X77053573Y-113171537D03*
X139210000Y-127020000D03*
X88239600Y-100380800D03*
X77053573Y-114187537D03*
X75021573Y-111139537D03*
X141630000Y-126210000D03*
X78069573Y-110123537D03*
X139830000Y-114230000D03*
X141450000Y-115020000D03*
D20*
X143370000Y-126550000D03*
X143370000Y-112140000D03*
D19*
X76037573Y-113171537D03*
X139030000Y-114230000D03*
X75021573Y-116219537D03*
X142460000Y-115000000D03*
X140640000Y-114230000D03*
X74005573Y-117235537D03*
X74018897Y-109149120D03*
X75034897Y-108133120D03*
X140010000Y-126210000D03*
X128524000Y-118262400D03*
X146220000Y-96890000D03*
X146220000Y-97670000D03*
X142460000Y-114240000D03*
X144580000Y-93345000D03*
X146220000Y-96110000D03*
X77066897Y-109149120D03*
X140020000Y-127820000D03*
X144550000Y-97670000D03*
X74005573Y-111139537D03*
D20*
X143350000Y-114680000D03*
D19*
X77053573Y-111139537D03*
X143680000Y-97670000D03*
X78069573Y-117235537D03*
X145400000Y-96890000D03*
X78069573Y-116219537D03*
X78082897Y-109149120D03*
X77053573Y-115203537D03*
X139030000Y-115790000D03*
X139830000Y-115790000D03*
X146630000Y-94183200D03*
X78069573Y-112155537D03*
X124002800Y-116688600D03*
X143680000Y-96110000D03*
X75021573Y-117235537D03*
X75021573Y-113171537D03*
X141450000Y-115780000D03*
X74018897Y-108133120D03*
X140640000Y-115790000D03*
D20*
X143390000Y-122730000D03*
D19*
X139200000Y-126210000D03*
X139030000Y-115020000D03*
X76050897Y-109149120D03*
X72390000Y-137490200D03*
X75021573Y-115203537D03*
X140840000Y-127020000D03*
X77066897Y-108133120D03*
X147090000Y-96890000D03*
X77053573Y-112155537D03*
X147090000Y-97670000D03*
X78069573Y-113171537D03*
X142450000Y-115780000D03*
X144550000Y-96110000D03*
X76037573Y-112155537D03*
X74005573Y-115203537D03*
X87782400Y-99923600D03*
X76037573Y-114187537D03*
X75021573Y-112155537D03*
X144580000Y-94183200D03*
X76037573Y-115203537D03*
X141640000Y-127020000D03*
X147090000Y-96110000D03*
X75021573Y-114187537D03*
X75021573Y-110123537D03*
X140640000Y-115010000D03*
X146630000Y-93345000D03*
D20*
X143380000Y-125270000D03*
D19*
X140830000Y-126210000D03*
X76037573Y-111139537D03*
X74005573Y-116219537D03*
X72390000Y-138328400D03*
X75034897Y-109149120D03*
X145400000Y-96110000D03*
X77053573Y-116219537D03*
X78082897Y-108133120D03*
X76037573Y-110123537D03*
X74005573Y-110123537D03*
X72390000Y-139166600D03*
X140840000Y-127820000D03*
D20*
X143360000Y-113400000D03*
D19*
X142580000Y-126980000D03*
X77053573Y-117235537D03*
D20*
X143370000Y-110840000D03*
D19*
X139210000Y-127820000D03*
X141640000Y-127820000D03*
X145400000Y-97670000D03*
X72390000Y-136626600D03*
D20*
X143380000Y-124010000D03*
D19*
X78069573Y-115203537D03*
X76037573Y-117235537D03*
X78069573Y-114187537D03*
X141450000Y-114230000D03*
X142560000Y-126030000D03*
X74005573Y-113171537D03*
X74005573Y-114187537D03*
X76037573Y-116219537D03*
X128549400Y-119151400D03*
X78069573Y-111139537D03*
X144550000Y-96890000D03*
X74005573Y-112155537D03*
X76050897Y-108133120D03*
%TO.N,+5V*%
X98552000Y-129794000D03*
X96774000Y-124714000D03*
X99568000Y-131572000D03*
X96774000Y-117602000D03*
%TO.N,+3.3V*%
X120980200Y-120497600D03*
X107365800Y-122453400D03*
X106146600Y-119380000D03*
X115773200Y-116281200D03*
X100126800Y-108839000D03*
X110667500Y-121147100D03*
X120446800Y-108102400D03*
X98171000Y-100330000D03*
X120980200Y-121234200D03*
X97739200Y-99872800D03*
X110236000Y-107746800D03*
%TO.N,/PC0*%
X115212756Y-120969955D03*
%TO.N,/PC1*%
X115062000Y-117652800D03*
%TO.N,/PC3*%
X117144800Y-117017800D03*
%TD*%
D21*
%TO.N,Net-(U3-PC14)*%
X110657000Y-124653000D02*
X110190000Y-125120000D01*
X111944877Y-121796461D02*
X111263539Y-121796461D01*
X110190000Y-128909400D02*
X110210600Y-128930000D01*
X112564386Y-121176952D02*
X111944877Y-121796461D01*
X112564386Y-121148229D02*
X112564386Y-121176952D01*
X111263539Y-121796461D02*
X110657000Y-122403000D01*
X110190000Y-125120000D02*
X110190000Y-128909400D01*
X110657000Y-122403000D02*
X110657000Y-124653000D01*
D22*
%TO.N,Net-(U3-PC13)*%
X109332000Y-127366000D02*
X109474000Y-127508000D01*
X109804200Y-120802400D02*
X109702600Y-120802400D01*
X109332000Y-121173000D02*
X109332000Y-127366000D01*
X111228344Y-120497600D02*
X110109000Y-120497600D01*
X109702600Y-120802400D02*
X109332000Y-121173000D01*
X110109000Y-120497600D02*
X109804200Y-120802400D01*
X111637589Y-120906845D02*
X111228344Y-120497600D01*
%TO.N,Net-(SW3-B)*%
X131724400Y-108712000D02*
X131953000Y-108940600D01*
X129768600Y-109372400D02*
X129768600Y-109042200D01*
X130098800Y-108712000D02*
X131724400Y-108712000D01*
X131953000Y-108940600D02*
X131953000Y-114680463D01*
X129768600Y-109042200D02*
X130098800Y-108712000D01*
X129362200Y-127279400D02*
X127431800Y-129209800D01*
X131953000Y-114680463D02*
X129362200Y-117271263D01*
X129362200Y-117271263D02*
X129362200Y-127279400D01*
D23*
%TO.N,GND*%
X124002800Y-118338600D02*
X124002800Y-120345200D01*
X122182700Y-122478800D02*
X123113800Y-122478800D01*
D24*
%TO.N,/Vbus*%
X110998000Y-110236000D02*
X81534000Y-110236000D01*
X111252000Y-110998000D02*
X111252000Y-110490000D01*
X111252000Y-110490000D02*
X110998000Y-110236000D01*
X81534000Y-110236000D02*
X81026000Y-110744000D01*
D21*
%TO.N,/UART_TX*%
X118009442Y-94980552D02*
X118009442Y-103478558D01*
X118009442Y-103478558D02*
X117094000Y-104394000D01*
D22*
%TO.N,/UART_RX*%
X116009442Y-105849442D02*
X116009442Y-94980552D01*
X116332000Y-106172000D02*
X116009442Y-105849442D01*
D21*
%TO.N,/SWDIO{slash}TMS*%
X100338000Y-136444000D02*
X100338000Y-118118000D01*
X100330000Y-118110000D02*
X102095000Y-116345000D01*
X100338000Y-118118000D02*
X100330000Y-118110000D01*
X113525000Y-116345000D02*
X113538000Y-116332000D01*
X102095000Y-116345000D02*
X113525000Y-116345000D01*
%TO.N,/SWCLK{slash}TCK*%
X112712161Y-117695000D02*
X103285000Y-117695000D01*
X102338000Y-118642000D02*
X102338000Y-136444000D01*
X112776000Y-117631161D02*
X112712161Y-117695000D01*
X103285000Y-117695000D02*
X102338000Y-118642000D01*
%TO.N,/SPB*%
X133502400Y-116459000D02*
X133502400Y-118059200D01*
X140337100Y-118643400D02*
X140342900Y-118637600D01*
X134086600Y-118643400D02*
X140337100Y-118643400D01*
X133502400Y-118059200D02*
X134086600Y-118643400D01*
%TO.N,/SPA*%
X132715000Y-121742200D02*
X132715000Y-120218200D01*
X132715000Y-120218200D02*
X132740400Y-120192800D01*
%TO.N,/SHC*%
X141772195Y-113563400D02*
X142494000Y-112841595D01*
X138058700Y-113563400D02*
X141772195Y-113563400D01*
X150444200Y-110058200D02*
X150774400Y-109728000D01*
X142494000Y-110388400D02*
X142824200Y-110058200D01*
X142494000Y-112841595D02*
X142494000Y-110388400D01*
X137372900Y-112877600D02*
X138058700Y-113563400D01*
X142824200Y-110058200D02*
X150444200Y-110058200D01*
%TO.N,/SHB*%
X147799120Y-116330000D02*
X148533720Y-115595400D01*
X135720000Y-116080000D02*
X135970000Y-116330000D01*
X135970000Y-116330000D02*
X147799120Y-116330000D01*
%TO.N,/SHA*%
X142276000Y-128380000D02*
X130790000Y-128380000D01*
X130236600Y-118632600D02*
X130035133Y-118431133D01*
X130790000Y-128380000D02*
X130236600Y-127826600D01*
X130035133Y-118431133D02*
X130035133Y-118275267D01*
X130236600Y-127826600D02*
X130236600Y-118632600D01*
X142640000Y-128016000D02*
X142276000Y-128380000D01*
%TO.N,/PB6*%
X121259600Y-119303800D02*
X124485400Y-122529600D01*
X126441200Y-125730000D02*
X126441200Y-129921000D01*
X111302800Y-115493800D02*
X116611400Y-115493800D01*
X127279400Y-130759200D02*
X134035800Y-130759200D01*
X120192800Y-119303800D02*
X121259600Y-119303800D01*
X134035800Y-130759200D02*
X136146800Y-132870200D01*
X124485400Y-122529600D02*
X124485400Y-123774200D01*
X118008400Y-116890800D02*
X118008400Y-117119400D01*
X116611400Y-115493800D02*
X118008400Y-116890800D01*
X124485400Y-123774200D02*
X126441200Y-125730000D01*
X110871000Y-115062000D02*
X111302800Y-115493800D01*
X136146800Y-132870200D02*
X136146800Y-136386400D01*
X126441200Y-129921000D02*
X127279400Y-130759200D01*
X118008400Y-117119400D02*
X120192800Y-119303800D01*
%TO.N,/NRST*%
X114122200Y-114046000D02*
X114300000Y-114223800D01*
X114117967Y-114050233D02*
X114122200Y-114046000D01*
D24*
X114547603Y-121575493D02*
X114554000Y-121581890D01*
X114554000Y-121581890D02*
X114554000Y-133096000D01*
D21*
X107844161Y-114050233D02*
X114117967Y-114050233D01*
D24*
X113538000Y-134112000D02*
X106670000Y-134112000D01*
X114554000Y-133096000D02*
X113538000Y-134112000D01*
X106670000Y-134112000D02*
X104338000Y-136444000D01*
D21*
X114300000Y-114223800D02*
X114300000Y-114630200D01*
%TO.N,/GLA*%
X131586600Y-119378584D02*
X130810300Y-118602284D01*
X131089400Y-126923800D02*
X131586600Y-126426600D01*
X131586600Y-126426600D02*
X131586600Y-119378584D01*
%TO.N,/GHC*%
X147751800Y-103657400D02*
X148285200Y-103124000D01*
X148285200Y-103124000D02*
X148285200Y-98475800D01*
X137744200Y-103657400D02*
X147751800Y-103657400D01*
X148285200Y-98475800D02*
X149326600Y-97434400D01*
X136779000Y-113893600D02*
X136779000Y-104622600D01*
X136779000Y-104622600D02*
X137744200Y-103657400D01*
D22*
%TO.N,/BST*%
X85344000Y-115824000D02*
X83312000Y-115824000D01*
X83312000Y-115824000D02*
X82550000Y-116586000D01*
X82550000Y-116586000D02*
X82550000Y-121412000D01*
D24*
%TO.N,/BOOT0*%
X91186000Y-134366000D02*
X91186000Y-117856000D01*
X91186000Y-117856000D02*
X93726000Y-115316000D01*
X107809934Y-115316000D02*
X107844950Y-115351016D01*
X93726000Y-115316000D02*
X107809934Y-115316000D01*
D22*
%TO.N,+5V*%
X98552000Y-129794000D02*
X98552000Y-130556000D01*
X96774000Y-117602000D02*
X96774000Y-124714000D01*
X98552000Y-130556000D02*
X99568000Y-131572000D01*
D25*
%TO.N,+3.3V*%
X109245400Y-108839000D02*
X106914366Y-108839000D01*
D23*
X106914366Y-94992367D02*
X106914366Y-106654600D01*
D25*
X100126800Y-100965000D02*
X99491800Y-100330000D01*
X110236000Y-107848400D02*
X109245400Y-108839000D01*
D23*
X106914366Y-108839000D02*
X106914366Y-106654600D01*
D26*
X106248200Y-119278400D02*
X106146600Y-119380000D01*
X113665000Y-117678200D02*
X113665000Y-118516400D01*
D23*
X106914366Y-106654600D02*
X106914366Y-107004434D01*
D25*
X99491800Y-100330000D02*
X98171000Y-100330000D01*
D23*
X110236000Y-107746800D02*
X110236000Y-107848400D01*
D25*
X120446800Y-108102400D02*
X119710200Y-108839000D01*
D26*
X115062000Y-116281200D02*
X113665000Y-117678200D01*
X112903000Y-119278400D02*
X106248200Y-119278400D01*
D25*
X100126800Y-108839000D02*
X107823000Y-108839000D01*
X100126800Y-108839000D02*
X100126800Y-100965000D01*
D26*
X113665000Y-118516400D02*
X112903000Y-119278400D01*
D25*
X119710200Y-108839000D02*
X109245400Y-108839000D01*
D26*
X115773200Y-116281200D02*
X115062000Y-116281200D01*
D21*
%TO.N,/PC0*%
X126946800Y-135186400D02*
X123883400Y-135186400D01*
X123883400Y-135186400D02*
X122275600Y-133578600D01*
X115212756Y-121286051D02*
X115212756Y-120969955D01*
X115222603Y-121295898D02*
X115212756Y-121286051D01*
X115864000Y-127167000D02*
X115222603Y-126525603D01*
X115222603Y-126525603D02*
X115222603Y-121295898D01*
X128146800Y-136386400D02*
X126946800Y-135186400D01*
X121553600Y-127167000D02*
X115864000Y-127167000D01*
X122275600Y-133578600D02*
X122275600Y-127889000D01*
X122275600Y-127889000D02*
X121553600Y-127167000D01*
%TO.N,/PC1*%
X123596400Y-127127000D02*
X123596400Y-132130800D01*
X129514600Y-133578600D02*
X130146800Y-134210800D01*
X130146800Y-134210800D02*
X130146800Y-136386400D01*
X123596400Y-132130800D02*
X125044200Y-133578600D01*
X122021600Y-125552200D02*
X123596400Y-127127000D01*
X116713000Y-125552200D02*
X122021600Y-125552200D01*
X115887756Y-118478556D02*
X115887756Y-124726956D01*
X115887756Y-124726956D02*
X116713000Y-125552200D01*
X125044200Y-133578600D02*
X129514600Y-133578600D01*
X115062000Y-117652800D02*
X115887756Y-118478556D01*
%TO.N,/PC3*%
X125120400Y-130886200D02*
X126339600Y-132105400D01*
X126339600Y-132105400D02*
X132537200Y-132105400D01*
X123407800Y-124373000D02*
X125120400Y-126085600D01*
X134162800Y-133731000D02*
X134162800Y-134010400D01*
X125120400Y-126085600D02*
X125120400Y-130886200D01*
X117337200Y-124373000D02*
X123407800Y-124373000D01*
X117144800Y-117017800D02*
X116560600Y-117602000D01*
X116560600Y-117602000D02*
X116560600Y-123596400D01*
X134162800Y-134010400D02*
X134146800Y-134026400D01*
X116560600Y-123596400D02*
X117337200Y-124373000D01*
X134146800Y-134026400D02*
X134146800Y-136386400D01*
X132537200Y-132105400D02*
X134162800Y-133731000D01*
%TD*%
%TA.AperFunction,Conductor*%
%TO.N,GND*%
G36*
X88458841Y-105767127D02*
G01*
X88553407Y-105782104D01*
X88590302Y-105794091D01*
X88666817Y-105833077D01*
X88698202Y-105855881D01*
X88758918Y-105916597D01*
X88781722Y-105947983D01*
X88820707Y-106024495D01*
X88832695Y-106061392D01*
X88847673Y-106155958D01*
X88849200Y-106175356D01*
X88849200Y-106727444D01*
X88847673Y-106746842D01*
X88832695Y-106841407D01*
X88820707Y-106878304D01*
X88781722Y-106954816D01*
X88758918Y-106986202D01*
X88698202Y-107046918D01*
X88666816Y-107069722D01*
X88590304Y-107108707D01*
X88553407Y-107120695D01*
X88473625Y-107133331D01*
X88458840Y-107135673D01*
X88439444Y-107137200D01*
X87684156Y-107137200D01*
X87664759Y-107135673D01*
X87645658Y-107132647D01*
X87570192Y-107120695D01*
X87533295Y-107108707D01*
X87456783Y-107069722D01*
X87425397Y-107046918D01*
X87364681Y-106986202D01*
X87341877Y-106954816D01*
X87302892Y-106878304D01*
X87290904Y-106841406D01*
X87275927Y-106746841D01*
X87274400Y-106727444D01*
X87274400Y-106175356D01*
X87275925Y-106155970D01*
X87290905Y-106061384D01*
X87302890Y-106024498D01*
X87341879Y-105947979D01*
X87364678Y-105916600D01*
X87425400Y-105855878D01*
X87456779Y-105833079D01*
X87533298Y-105794090D01*
X87570184Y-105782105D01*
X87664770Y-105767125D01*
X87684156Y-105765600D01*
X88439444Y-105765600D01*
X88458841Y-105767127D01*
G37*
%TD.AperFunction*%
%TD*%
%TA.AperFunction,Conductor*%
%TO.N,+3.3V*%
G36*
X98136241Y-99442527D02*
G01*
X98230807Y-99457504D01*
X98267702Y-99469491D01*
X98344217Y-99508477D01*
X98375602Y-99531281D01*
X98436318Y-99591997D01*
X98459122Y-99623383D01*
X98498107Y-99699895D01*
X98510095Y-99736792D01*
X98525073Y-99831358D01*
X98526600Y-99850756D01*
X98526600Y-100301244D01*
X98525073Y-100320642D01*
X98510095Y-100415207D01*
X98498107Y-100452104D01*
X98459122Y-100528616D01*
X98436318Y-100560002D01*
X98375602Y-100620718D01*
X98344216Y-100643522D01*
X98267704Y-100682507D01*
X98230807Y-100694495D01*
X98151025Y-100707131D01*
X98136240Y-100709473D01*
X98116844Y-100711000D01*
X97742556Y-100711000D01*
X97723159Y-100709473D01*
X97704058Y-100706447D01*
X97628592Y-100694495D01*
X97591695Y-100682507D01*
X97515183Y-100643522D01*
X97483797Y-100620718D01*
X97423081Y-100560002D01*
X97400277Y-100528616D01*
X97361292Y-100452104D01*
X97349304Y-100415206D01*
X97334327Y-100320641D01*
X97332800Y-100301244D01*
X97332800Y-99850756D01*
X97334325Y-99831370D01*
X97349305Y-99736784D01*
X97361290Y-99699898D01*
X97400279Y-99623379D01*
X97423078Y-99592000D01*
X97483800Y-99531278D01*
X97515179Y-99508479D01*
X97591698Y-99469490D01*
X97628584Y-99457505D01*
X97723170Y-99442525D01*
X97742556Y-99441000D01*
X98116844Y-99441000D01*
X98136241Y-99442527D01*
G37*
%TD.AperFunction*%
%TD*%
%TA.AperFunction,Conductor*%
%TO.N,/CB*%
G36*
X124550400Y-113097413D02*
G01*
X124595787Y-113142800D01*
X124612400Y-113204800D01*
X124612400Y-114264100D01*
X124595787Y-114326100D01*
X124550400Y-114371487D01*
X124488400Y-114388100D01*
X123742751Y-114388100D01*
X123683323Y-114372932D01*
X123638435Y-114331138D01*
X123619067Y-114272943D01*
X123625451Y-114237558D01*
X123624160Y-114237373D01*
X123629733Y-114198607D01*
X123645133Y-114091500D01*
X123626697Y-113963274D01*
X123603658Y-113912827D01*
X123572881Y-113845435D01*
X123488049Y-113747533D01*
X123379068Y-113677494D01*
X123254773Y-113641000D01*
X123254772Y-113641000D01*
X123125228Y-113641000D01*
X123125227Y-113641000D01*
X123000931Y-113677494D01*
X122891950Y-113747533D01*
X122807118Y-113845435D01*
X122753302Y-113963273D01*
X122743355Y-114032464D01*
X122721625Y-114086744D01*
X122677437Y-114125033D01*
X122620617Y-114138817D01*
X122524436Y-114138817D01*
X122453515Y-114159640D01*
X122395113Y-114162421D01*
X122341930Y-114138132D01*
X122305788Y-114092174D01*
X122300580Y-114080770D01*
X122300578Y-114080768D01*
X122300578Y-114080767D01*
X122215747Y-113982866D01*
X122106766Y-113912827D01*
X121982471Y-113876333D01*
X121982470Y-113876333D01*
X121852926Y-113876333D01*
X121852925Y-113876333D01*
X121728629Y-113912827D01*
X121619648Y-113982866D01*
X121534816Y-114080768D01*
X121477881Y-114205437D01*
X121441157Y-114251850D01*
X121387103Y-114275955D01*
X121328034Y-114272260D01*
X121277406Y-114241606D01*
X121158000Y-114122200D01*
X120139000Y-114122200D01*
X120077000Y-114105587D01*
X120031613Y-114060200D01*
X120015000Y-113998200D01*
X120015000Y-113204800D01*
X120031613Y-113142800D01*
X120077000Y-113097413D01*
X120139000Y-113080800D01*
X124488400Y-113080800D01*
X124550400Y-113097413D01*
G37*
%TD.AperFunction*%
%TD*%
%TA.AperFunction,Conductor*%
%TO.N,/SW*%
G36*
X119747500Y-113351413D02*
G01*
X119792887Y-113396800D01*
X119809500Y-113458800D01*
X119809500Y-113998201D01*
X119816501Y-114051386D01*
X119833116Y-114113392D01*
X119853644Y-114162949D01*
X119862376Y-114174329D01*
X119881419Y-114209957D01*
X119888000Y-114249815D01*
X119888000Y-114554000D01*
X120091200Y-114757200D01*
X121766531Y-114757200D01*
X121801463Y-114762222D01*
X121852926Y-114777333D01*
X121982470Y-114777333D01*
X122033932Y-114762222D01*
X122068865Y-114757200D01*
X122090932Y-114757200D01*
X122157970Y-114776884D01*
X122203725Y-114829686D01*
X122206325Y-114835380D01*
X122291158Y-114933283D01*
X122291159Y-114933284D01*
X122319848Y-114951721D01*
X122400139Y-115003322D01*
X122524435Y-115039817D01*
X122524436Y-115039817D01*
X122653980Y-115039817D01*
X122653981Y-115039817D01*
X122778276Y-115003322D01*
X122806966Y-114984883D01*
X122887257Y-114933284D01*
X122972090Y-114835380D01*
X122972089Y-114835380D01*
X122974691Y-114829686D01*
X123020446Y-114776884D01*
X123087484Y-114757200D01*
X124764800Y-114757200D01*
X125402800Y-114757200D01*
X125464800Y-114773813D01*
X125510187Y-114819200D01*
X125526800Y-114881200D01*
X125526800Y-115242800D01*
X125510187Y-115304800D01*
X125464800Y-115350187D01*
X125402800Y-115366800D01*
X124688599Y-115366800D01*
X124167378Y-115888021D01*
X124157822Y-115896634D01*
X123839686Y-116154744D01*
X123809014Y-116173011D01*
X123725177Y-116207737D01*
X123610179Y-116295979D01*
X123527658Y-116403522D01*
X123507407Y-116424328D01*
X123217061Y-116659893D01*
X123180382Y-116680468D01*
X123138936Y-116687600D01*
X119594387Y-116687600D01*
X119539543Y-116674812D01*
X119496011Y-116639087D01*
X119490861Y-116632375D01*
X119402621Y-116517379D01*
X119287625Y-116429139D01*
X119287624Y-116429138D01*
X119287622Y-116429137D01*
X119153709Y-116373670D01*
X119010000Y-116354749D01*
X118866290Y-116373670D01*
X118732377Y-116429137D01*
X118617379Y-116517379D01*
X118523989Y-116639087D01*
X118480457Y-116674812D01*
X118425613Y-116687600D01*
X118317756Y-116687600D01*
X118275345Y-116680122D01*
X118238052Y-116658590D01*
X118232650Y-116654058D01*
X118224686Y-116646759D01*
X118044719Y-116466792D01*
X118017839Y-116426564D01*
X118008400Y-116379111D01*
X118008400Y-113458800D01*
X118025013Y-113396800D01*
X118070400Y-113351413D01*
X118132400Y-113334800D01*
X119685500Y-113334800D01*
X119747500Y-113351413D01*
G37*
%TD.AperFunction*%
%TD*%
%TA.AperFunction,Conductor*%
%TO.N,+BATT*%
G36*
X88255641Y-99544127D02*
G01*
X88350207Y-99559104D01*
X88387102Y-99571091D01*
X88463617Y-99610077D01*
X88495002Y-99632881D01*
X88555718Y-99693597D01*
X88578522Y-99724983D01*
X88617507Y-99801495D01*
X88629495Y-99838392D01*
X88644473Y-99932958D01*
X88646000Y-99952356D01*
X88646000Y-100352044D01*
X88644473Y-100371442D01*
X88629495Y-100466007D01*
X88617507Y-100502904D01*
X88578522Y-100579416D01*
X88555718Y-100610802D01*
X88495002Y-100671518D01*
X88463616Y-100694322D01*
X88387104Y-100733307D01*
X88350207Y-100745295D01*
X88270425Y-100757931D01*
X88255640Y-100760273D01*
X88236244Y-100761800D01*
X87811156Y-100761800D01*
X87791759Y-100760273D01*
X87772658Y-100757247D01*
X87697192Y-100745295D01*
X87660295Y-100733307D01*
X87583783Y-100694322D01*
X87552397Y-100671518D01*
X87491681Y-100610802D01*
X87468877Y-100579416D01*
X87429892Y-100502904D01*
X87417904Y-100466006D01*
X87402927Y-100371441D01*
X87401400Y-100352044D01*
X87401400Y-99952356D01*
X87402925Y-99932970D01*
X87417905Y-99838384D01*
X87429890Y-99801498D01*
X87468879Y-99724979D01*
X87491678Y-99693600D01*
X87552400Y-99632878D01*
X87583779Y-99610079D01*
X87660298Y-99571090D01*
X87697184Y-99559105D01*
X87791770Y-99544125D01*
X87811156Y-99542600D01*
X88236244Y-99542600D01*
X88255641Y-99544127D01*
G37*
%TD.AperFunction*%
%TD*%
%TA.AperFunction,Conductor*%
%TO.N,+3.3V*%
G36*
X121426200Y-120082413D02*
G01*
X121471587Y-120127800D01*
X121488200Y-120189800D01*
X121488200Y-122812000D01*
X121471587Y-122874000D01*
X121426200Y-122919387D01*
X121364200Y-122936000D01*
X118183200Y-122936000D01*
X118121200Y-122919387D01*
X118075813Y-122874000D01*
X118059200Y-122812000D01*
X118059200Y-120189800D01*
X118075813Y-120127800D01*
X118121200Y-120082413D01*
X118183200Y-120065800D01*
X121364200Y-120065800D01*
X121426200Y-120082413D01*
G37*
%TD.AperFunction*%
%TD*%
%TA.AperFunction,Conductor*%
%TO.N,GND*%
G36*
X98237841Y-105741727D02*
G01*
X98332407Y-105756704D01*
X98369302Y-105768691D01*
X98445817Y-105807677D01*
X98477202Y-105830481D01*
X98537918Y-105891197D01*
X98560722Y-105922583D01*
X98599707Y-105999095D01*
X98611695Y-106035992D01*
X98626673Y-106130558D01*
X98628200Y-106149956D01*
X98628200Y-106676644D01*
X98626673Y-106696042D01*
X98611695Y-106790607D01*
X98599707Y-106827504D01*
X98560722Y-106904016D01*
X98537918Y-106935402D01*
X98477202Y-106996118D01*
X98445816Y-107018922D01*
X98369304Y-107057907D01*
X98332407Y-107069895D01*
X98252625Y-107082531D01*
X98237840Y-107084873D01*
X98218444Y-107086400D01*
X97666356Y-107086400D01*
X97646959Y-107084873D01*
X97627858Y-107081847D01*
X97552392Y-107069895D01*
X97515495Y-107057907D01*
X97438983Y-107018922D01*
X97407597Y-106996118D01*
X97346881Y-106935402D01*
X97324077Y-106904016D01*
X97285092Y-106827504D01*
X97273104Y-106790606D01*
X97258127Y-106696041D01*
X97256600Y-106676644D01*
X97256600Y-106149956D01*
X97258125Y-106130570D01*
X97273105Y-106035984D01*
X97285090Y-105999098D01*
X97324079Y-105922579D01*
X97346878Y-105891200D01*
X97407600Y-105830478D01*
X97438979Y-105807679D01*
X97515498Y-105768690D01*
X97552384Y-105756705D01*
X97646970Y-105741725D01*
X97666356Y-105740200D01*
X98218444Y-105740200D01*
X98237841Y-105741727D01*
G37*
%TD.AperFunction*%
%TD*%
M02*
